<svg xmlns:xlink="http://www.w3.org/1999/xlink" xmlns="http://www.w3.org/2000/svg" data-v-2086c66c="" viewBox="0 0 34.5 30.3" class="icon-inline icon-2x" width="34.5"  height="30.3" ><path data-v-2086c66c="" d="M31 17.6l3-13-.1-.4-.4-.2H6.8L6 .4C5.9.2 5.7 0 5.5 0h-5C.2 0 0 .2 0 .5s.2.5.5.5h4.6L10 23.6l.2.3c-.7.6-1.2 1.6-1.2 2.6 0 1.9 1.6 3.5 3.5 3.5s3.5-1.6 3.5-3.5c0-1-.4-1.9-1.1-2.5H25c-.7.6-1.1 1.5-1.1 2.5 0 1.9 1.6 3.5 3.5 3.5s3.5-1.6 3.5-3.5-1.5-3.5-3.4-3.5H10.9l-1.1-5h20.7c.2 0 .4-.2.5-.4zm-1 8.9c0 1.4-1.1 2.5-2.5 2.5S25 27.9 25 26.5s1.1-2.5 2.5-2.5 2.5 1.1 2.5 2.5zm-15 0c0 1.4-1.1 2.5-2.5 2.5S10 27.9 10 26.5s1.1-2.5 2.5-2.5 2.5 1.1 2.5 2.5zM9.6 17L7 5h25.9l-2.8 12H9.6z" fill="#FFFFFF"></path></svg>