<svg xmlns="http://www.w3.org/2000/svg" width="23.345" height="33.201" viewBox="0 0 23.345 33.201">
  <g id="Grupo_2086" data-name="Grupo 2086" transform="translate(-1242 -962)">
    <path id="Caminho_7418" data-name="Caminho 7418" d="M195,400.469V407.7l1.945-2,1.945,2v-7.232a5.458,5.458,0,0,1-3.891,0Zm0,0" transform="translate(1059.645 587.5)" fill="#1a6688"/>
    <path id="Caminho_7419" data-name="Caminho 7419" d="M168.891,256a3.891,3.891,0,1,0,3.891,3.891A3.895,3.895,0,0,0,168.891,256Zm0,0" transform="translate(1087.7 722.601)" fill="#1a6688"/>
    <path id="Caminho_7420" data-name="Caminho 7420" d="M5.836,0H4.461L0,4.461V5.836H5.836Zm0,0" transform="translate(1242 962)" fill="#1a6688"/>
    <path id="Caminho_7421" data-name="Caminho 7421" d="M7.782,0V7.782H0V29.246H10.7V24.81a5.833,5.833,0,0,1-1.838-3.346H3.891V19.519H8.853a5.762,5.762,0,0,1,.713-1.945H3.891V15.628h7.485a5.819,5.819,0,0,1,7.1,9.182v4.436h4.863V0ZM19.454,13.683H3.891V11.737H19.454Zm0-3.956H9.727V7.782h9.727Zm0-3.891H9.727V3.891h9.727Zm0,0" transform="translate(1242 962)" fill="#1a6688"/>
  </g>
</svg>
