<svg xmlns="http://www.w3.org/2000/svg" width="24.5" height="38" viewBox="0 0 24.5 38">
  <g id="Grupo_2102" data-name="Grupo 2102" transform="translate(-674.961 -1110)">
    <g id="Grupo_2084" data-name="Grupo 2084" transform="translate(-0.04 153)">
      <path id="Caminho_7422" data-name="Caminho 7422" d="M22.167,0a2.111,2.111,0,0,1,2.111,2.111V35.889A2.111,2.111,0,0,1,22.167,38H2.111A2.111,2.111,0,0,1,0,35.889V2.111Z" transform="translate(675.222 957)" fill="#fff"/>
      <g id="trophy-1" transform="translate(675 959.579)">
        <path id="Caminho_7375" data-name="Caminho 7375" d="M240.762,311.644v-3.465a1.742,1.742,0,0,1-.416.05h-1.429a1.742,1.742,0,0,1-.416-.05v3.465Z" transform="translate(-227.654 -288.278)" fill="#1a6688"/>
        <path id="Caminho_7377" data-name="Caminho 7377" d="M220.375,278.492a6.926,6.926,0,0,1-2.461-.45v.319a1.747,1.747,0,0,0,1.747,1.747h1.429a1.747,1.747,0,0,0,1.747-1.747v-.319A6.927,6.927,0,0,1,220.375,278.492Z" transform="translate(-208.398 -260.087)" fill="#1a6688"/>
        <path id="Caminho_7379" data-name="Caminho 7379" d="M222.041,361.422v-1.1a.324.324,0,0,0-.323-.323h-4.395a.324.324,0,0,0-.323.323v1.1Z" transform="translate(-207.543 -336.752)" fill="#1a6688"/>
        <path id="Caminho_7381" data-name="Caminho 7381" d="M173.714,385.622v-5.3a.324.324,0,0,0-.323-.323H161.823a.324.324,0,0,0-.323.323v5.3Z" transform="translate(-155.63 -355.466)" fill="#1a6688"/>
        <path id="Caminho_7383" data-name="Caminho 7383" d="M197.641,401.037a.324.324,0,0,1-.323.323H189.3a.324.324,0,0,1-.323-.323v-2.714A.324.324,0,0,1,189.3,398h8.017a.324.324,0,0,1,.323.323Z" transform="translate(-181.332 -372.302)" fill="#f5f5f5"/>
        <path id="Caminho_7385" data-name="Caminho 7385" d="M150.752,466H135.823a.324.324,0,0,0-.323.323v.6a15.848,15.848,0,0,0,15.575,0v-.6A.324.324,0,0,0,150.752,466Z" transform="translate(-131.31 -435.908)" fill="#1a6688"/>
        <path id="Caminho_7387" data-name="Caminho 7387" d="M366.361,25.591h-2.5v.543a.259.259,0,0,1-.258.259h-1.085a.065.065,0,0,0-.065.065v.749h3.388a10.339,10.339,0,0,1-3.388,7.156v1.032a6.971,6.971,0,0,1-.088,1.1,11.971,11.971,0,0,0,5.1-9.8A1.1,1.1,0,0,0,366.361,25.591Z" transform="translate(-343.51 -23.937)" fill="#1a6688"/>
        <path id="Caminho_7388" data-name="Caminho 7388" d="M75.684,35.394V34.363A10.339,10.339,0,0,1,72.3,27.207h3.388v-.749a.065.065,0,0,0-.065-.065H74.535a.259.259,0,0,1-.258-.259v-.543h-2.5a1.1,1.1,0,0,0-1.1,1.1,11.972,11.972,0,0,0,5.1,9.8A6.988,6.988,0,0,1,75.684,35.394Z" transform="translate(-70.668 -23.937)" fill="#1a6688"/>
        <path id="Caminho_7389" data-name="Caminho 7389" d="M147.282,38v9a7.026,7.026,0,0,0,14.052,0V38Z" transform="translate(-142.331 -35.544)" fill="#1a6688"/>
        <g id="Grupo_2062" data-name="Grupo 2062" transform="translate(7.195 5.262)">
          <circle id="Elipse_103" data-name="Elipse 103" cx="4.782" cy="4.782" r="4.782" fill="#f5f5f5"/>
        </g>
        <path id="Caminho_7392" data-name="Caminho 7392" d="M212.922,116.043a.514.514,0,0,1-.24-.064l-1.3-.684a.345.345,0,0,0-.245,0l-1.3.684a.515.515,0,0,1-.24.064.388.388,0,0,1-.3-.138.463.463,0,0,1-.089-.385l.249-1.45a.343.343,0,0,0-.076-.233l-1.053-1.027a.417.417,0,0,1,.241-.742l1.456-.211a.343.343,0,0,0,.2-.144l.651-1.319a.417.417,0,0,1,.78,0l.651,1.319a.343.343,0,0,0,.2.144l1.456.211a.417.417,0,0,1,.241.742l-1.053,1.027a.343.343,0,0,0-.076.233l.249,1.45a.464.464,0,0,1-.089.385A.388.388,0,0,1,212.922,116.043Z" transform="translate(-199.28 -103.014)" fill="#1a6688"/>
        <path id="Caminho_7394" data-name="Caminho 7394" d="M142.368,2.2a.324.324,0,0,1-.323.323H125.823A.324.324,0,0,1,125.5,2.2V.323A.324.324,0,0,1,125.823,0h16.221a.324.324,0,0,1,.323.323Z" transform="translate(-121.956)" fill="#1a6688"/>
        <g id="Grupo_2063" data-name="Grupo 2063" transform="translate(9.909 26.409)">
          <path id="Caminho_7398" data-name="Caminho 7398" d="M227.813,409.646h-3.49a.323.323,0,1,1,0-.646h3.49a.323.323,0,0,1,0,.646Z" transform="translate(-224 -409)" fill="#1a6688"/>
          <path id="Caminho_7399" data-name="Caminho 7399" d="M238.262,427.646h-1.939a.323.323,0,1,1,0-.646h1.939a.323.323,0,0,1,0,.646Z" transform="translate(-235.224 -425.837)" fill="#1a6688"/>
        </g>
      </g>
    </g>
  </g>
</svg>
