<svg xmlns="http://www.w3.org/2000/svg" width="34.425" height="33.924" viewBox="0 0 34.425 33.924">
  <g id="Grupo_2103" data-name="Grupo 2103" transform="translate(-961.999 -1113.374)">
    <g id="Grupo_2085" data-name="Grupo 2085" transform="translate(962.499 1113.374)">
      <g id="low-price" transform="translate(0 0)">
        <g id="Grupo_2041" data-name="Grupo 2041" transform="translate(25.338 1.591)">
          <path id="Caminho_7336" data-name="Caminho 7336" d="M377.448,45.594a4.134,4.134,0,0,1-2.932-1.212l.8-.8a3.016,3.016,0,0,0,4.265-4.265l.8-.8a4.144,4.144,0,0,1-2.932,7.076Z" transform="translate(-374.516 -38.518)" fill="#1a6688"/>
        </g>
        <g id="Grupo_2042" data-name="Grupo 2042" transform="translate(0 3.392)">
          <path id="Caminho_7337" data-name="Caminho 7337" d="M46.532,65.131A3.861,3.861,0,0,0,43.8,64H32.768a2.261,2.261,0,0,0-1.6.662L16.8,79.032a2.73,2.73,0,0,0,0,3.861L26.509,92.6a2.73,2.73,0,0,0,1.93.8H30.7a2.73,2.73,0,0,0,1.93-.8L47,78.232a2.262,2.262,0,0,0,.662-1.6V67.861A3.861,3.861,0,0,0,46.532,65.131Z" transform="translate(-16 -64)" fill="#1a6688"/>
        </g>
        <g id="Grupo_2043" data-name="Grupo 2043" transform="translate(0 3.392)">
          <path id="Caminho_7338" data-name="Caminho 7338" d="M31.169,64.662,16.8,79.032a2.73,2.73,0,0,0,0,3.861L26.509,92.6a2.73,2.73,0,0,0,3.861,0L44.739,78.232a2.262,2.262,0,0,0,.662-1.6V67.861A3.861,3.861,0,0,0,41.54,64H32.768a2.262,2.262,0,0,0-1.6.662Z" transform="translate(-16 -64)" fill="#f5f5f5" stroke="#1a6688" stroke-width="1"/>
        </g>
        <g id="Grupo_2044" data-name="Grupo 2044" transform="translate(23.476 5.021)">
          <ellipse id="Elipse_101" data-name="Elipse 101" cx="2.171" cy="1.9" rx="2.171" ry="1.9" fill="#1a6688"/>
        </g>
        <g id="Grupo_2045" data-name="Grupo 2045" transform="translate(24.126 0.379)">
          <path id="Caminho_7339" data-name="Caminho 7339" d="M358.974,28.6a.564.564,0,0,1-.4-.166,4.146,4.146,0,0,1,5.864-5.864.565.565,0,1,1-.8.8,3.016,3.016,0,1,0-4.265,4.265.565.565,0,0,1-.4.965Z" transform="translate(-357.361 -21.362)" fill="#1a6688"/>
        </g>
        <g id="Grupo_2046" data-name="Grupo 2046" transform="translate(2.73 6.122)">
          <path id="Caminho_7340" data-name="Caminho 7340" d="M54.958,116.06l13.1-13.1a1.131,1.131,0,0,1,1.6,0l8.578,8.578a1.131,1.131,0,0,1,0,1.6l-13.1,13.1a1.131,1.131,0,0,1-1.6,0l-8.578-8.578A1.131,1.131,0,0,1,54.958,116.06Z" transform="translate(-54.627 -102.627)" fill="#1a6688"/>
        </g>
        <path id="Caminho_7341" data-name="Caminho 7341" d="M150.605,190.242l-.064-.064.52-.52a1.131,1.131,0,1,0-1.6-1.6l-.52.52-.064-.064a3.108,3.108,0,0,0-5.145,3.18l1.489,4.467a.846.846,0,0,1-1.4.866l-1.728-1.728a.846.846,0,0,1,0-1.2l.3-.3a1.131,1.131,0,0,0-1.6-1.6l-.3.3a3.107,3.107,0,0,0,0,4.395l.064.064-.52.52a1.131,1.131,0,1,0,1.6,1.6l.52-.52.064.064a3.108,3.108,0,0,0,5.145-3.18l-1.489-4.467a.846.846,0,0,1,1.4-.866l1.728,1.728a.846.846,0,0,1,0,1.2l-.3.3a1.131,1.131,0,1,0,1.6,1.6l.3-.3a3.107,3.107,0,0,0,0-4.395Z" transform="translate(-130.849 -175.477)" fill="#f5f5f5"/>
        <g id="Grupo_2051" data-name="Grupo 2051" transform="translate(3.392)">
          <g id="Grupo_2047" data-name="Grupo 2047" transform="translate(3.392 0)">
            <path id="Caminho_7342" data-name="Caminho 7342" d="M114.262,19.392H112V17.131a1.131,1.131,0,1,1,2.262,0Z" transform="translate(-112 -16)" fill="#1a6688"/>
          </g>
          <g id="Grupo_2048" data-name="Grupo 2048" transform="translate(3.392 5.654)">
            <path id="Caminho_7343" data-name="Caminho 7343" d="M113.131,99.392A1.131,1.131,0,0,1,112,98.262V96h2.262v2.262A1.131,1.131,0,0,1,113.131,99.392Z" transform="translate(-112 -96)" fill="#1a6688"/>
          </g>
          <g id="Grupo_2049" data-name="Grupo 2049" transform="translate(0 3.392)">
            <path id="Caminho_7344" data-name="Caminho 7344" d="M67.392,64v2.262H65.131a1.131,1.131,0,1,1,0-2.262Z" transform="translate(-64 -64)" fill="#1a6688"/>
          </g>
          <g id="Grupo_2050" data-name="Grupo 2050" transform="translate(5.654 3.392)">
            <path id="Caminho_7345" data-name="Caminho 7345" d="M147.392,65.131a1.131,1.131,0,0,1-1.131,1.131H144V64h2.262A1.131,1.131,0,0,1,147.392,65.131Z" transform="translate(-144 -64)" fill="#1a6688"/>
          </g>
        </g>
        <g id="Grupo_2056" data-name="Grupo 2056" transform="translate(24.878 19.224)">
          <g id="Grupo_2052" data-name="Grupo 2052" transform="translate(3.392)">
            <path id="Caminho_7346" data-name="Caminho 7346" d="M418.262,291.392H416v-2.262a1.131,1.131,0,0,1,2.262,0Z" transform="translate(-416 -288)" fill="#1a6688"/>
          </g>
          <g id="Grupo_2053" data-name="Grupo 2053" transform="translate(3.392 5.654)">
            <path id="Caminho_7347" data-name="Caminho 7347" d="M417.131,371.392A1.131,1.131,0,0,1,416,370.262V368h2.262v2.262A1.131,1.131,0,0,1,417.131,371.392Z" transform="translate(-416 -368)" fill="#1a6688"/>
          </g>
          <g id="Grupo_2054" data-name="Grupo 2054" transform="translate(0 3.392)">
            <path id="Caminho_7348" data-name="Caminho 7348" d="M371.392,336v2.262h-2.262a1.131,1.131,0,0,1,0-2.262Z" transform="translate(-368 -336)" fill="#1a6688"/>
          </g>
          <g id="Grupo_2055" data-name="Grupo 2055" transform="translate(5.654 3.392)">
            <path id="Caminho_7349" data-name="Caminho 7349" d="M451.393,337.131a1.131,1.131,0,0,1-1.131,1.131H448V336h2.262A1.131,1.131,0,0,1,451.393,337.131Z" transform="translate(-448 -336)" fill="#1a6688"/>
          </g>
        </g>
        <g id="Grupo_2061" data-name="Grupo 2061" transform="translate(0 24.878)">
          <g id="Grupo_2057" data-name="Grupo 2057" transform="translate(3.392)">
            <path id="Caminho_7350" data-name="Caminho 7350" d="M66.262,371.392H64v-2.262a1.131,1.131,0,0,1,2.262,0Z" transform="translate(-64 -368)" fill="#1a6688"/>
          </g>
          <g id="Grupo_2058" data-name="Grupo 2058" transform="translate(3.392 5.654)">
            <path id="Caminho_7351" data-name="Caminho 7351" d="M65.131,451.393A1.131,1.131,0,0,1,64,450.262V448h2.262v2.262A1.131,1.131,0,0,1,65.131,451.393Z" transform="translate(-64 -448)" fill="#1a6688"/>
          </g>
          <g id="Grupo_2059" data-name="Grupo 2059" transform="translate(0 3.392)">
            <path id="Caminho_7352" data-name="Caminho 7352" d="M19.392,416v2.262H17.131a1.131,1.131,0,0,1,0-2.262Z" transform="translate(-16 -416)" fill="#1a6688"/>
          </g>
          <g id="Grupo_2060" data-name="Grupo 2060" transform="translate(5.654 3.392)">
            <path id="Caminho_7353" data-name="Caminho 7353" d="M99.392,417.131a1.131,1.131,0,0,1-1.131,1.131H96V416h2.262A1.131,1.131,0,0,1,99.392,417.131Z" transform="translate(-96 -416)" fill="#1a6688"/>
          </g>
        </g>
      </g>
    </g>
  </g>
</svg>
