<svg id="success" xmlns="http://www.w3.org/2000/svg" width="170" height="170" viewBox="0 0 170 170">
  <g id="Grupo_16" data-name="Grupo 16" transform="translate(40.892 54.906)">
    <g id="Grupo_15" data-name="Grupo 15">
      <path id="Caminho_5" data-name="Caminho 5" d="M209.713,167.513a6.89,6.89,0,0,0-9.743-.257l-44,41.726-20.986-21.547a6.892,6.892,0,0,0-9.874,9.617l25.73,26.417a6.894,6.894,0,0,0,9.681.193l48.932-46.405A6.891,6.891,0,0,0,209.713,167.513Z" transform="translate(-123.158 -165.364)" fill="#28b72d"/>
    </g>
  </g>
  <g id="Grupo_18" data-name="Grupo 18">
    <g id="Grupo_17" data-name="Grupo 17">
      <path id="Caminho_6" data-name="Caminho 6" d="M85,0a85,85,0,1,0,85,85A85.1,85.1,0,0,0,85,0Zm0,156.216A71.216,71.216,0,1,1,156.216,85,71.3,71.3,0,0,1,85,156.216Z" fill="#28b72d"/>
    </g>
  </g>
</svg>
