<svg xmlns="http://www.w3.org/2000/svg" width="170" height="152.525" viewBox="0 0 170 152.525">
  <g id="Grupo_14" data-name="Grupo 14" transform="translate(0 -26.315)">
    <g id="Grupo_9" data-name="Grupo 9" transform="translate(0 26.315)">
      <g id="Grupo_8" data-name="Grupo 8" transform="translate(0 0)">
        <path id="Caminho_3" data-name="Caminho 3" d="M167.29,148.855,102.311,36.31a19.99,19.99,0,0,0-34.623,0L2.71,148.855A19.99,19.99,0,0,0,20.022,178.84H149.978a19.989,19.989,0,0,0,17.312-29.984Zm-8.625,15.01a9.928,9.928,0,0,1-8.687,5.015H20.022a10.03,10.03,0,0,1-8.687-15.045L76.314,41.29a10.03,10.03,0,0,1,17.372,0l64.978,112.546A9.929,9.929,0,0,1,158.664,163.866Z" transform="translate(0 -26.315)" fill="red"/>
      </g>
    </g>
    <g id="Grupo_11" data-name="Grupo 11" transform="translate(80.019 76.018)">
      <g id="Grupo_10" data-name="Grupo 10">
        <rect id="Retângulo_1" data-name="Retângulo 1" width="9.96" height="49.799" fill="red"/>
      </g>
    </g>
    <g id="Grupo_13" data-name="Grupo 13" transform="translate(78.36 135.777)">
      <g id="Grupo_12" data-name="Grupo 12" transform="translate(0 0)">
        <path id="Caminho_4" data-name="Caminho 4" d="M242.642,355.99a6.64,6.64,0,1,0,6.64,6.64A6.647,6.647,0,0,0,242.642,355.99Z" transform="translate(-236.002 -355.99)" fill="red"/>
      </g>
    </g>
  </g>
</svg>
