<svg id="Grupo_7" data-name="Grupo 7" xmlns="http://www.w3.org/2000/svg" width="170" height="170" viewBox="0 0 170 170">
  <g id="Grupo_2" data-name="Grupo 2">
    <g id="Grupo_1" data-name="Grupo 1">
      <path id="Caminho_1" data-name="Caminho 1" d="M85,0a85,85,0,1,0,85,85A84.952,84.952,0,0,0,85,0Zm0,156.719A71.719,71.719,0,1,1,156.719,85,71.678,71.678,0,0,1,85,156.719Z" fill="#ccc"/>
    </g>
  </g>
  <g id="Grupo_4" data-name="Grupo 4" transform="translate(78.359 42.791)">
    <g id="Grupo_3" data-name="Grupo 3">
      <path id="Caminho_2" data-name="Caminho 2" d="M242.641,128.877A6.641,6.641,0,0,0,236,135.518v42.763a6.641,6.641,0,0,0,13.281,0V135.518A6.64,6.64,0,0,0,242.641,128.877Z" transform="translate(-236 -128.877)" fill="#ccc"/>
    </g>
  </g>
  <g id="Grupo_6" data-name="Grupo 6" transform="translate(76.035 106.967)">
    <g id="Grupo_5" data-name="Grupo 5">
      <circle id="Elipse_1" data-name="Elipse 1" cx="8.965" cy="8.965" r="8.965" fill="#ccc"/>
    </g>
  </g>
</svg>
